<?xml version="1.0" encoding="UTF-8"?>
<svg xmlns="http://www.w3.org/2000/svg" id="Capa_32" data-name="Capa 32" viewBox="0 0 24 24">
  <path fill="#efefef" d="m20.65,18.172h-.174v-.353h.22c.114,0,.244.018.244.167,0,.171-.131.185-.29.185Z"/>
  <path fill="#efefef" d="m20.639,17.366c-.473.008-.85.398-.843.871.008.473.398.851.871.843h0s.022,0,.022,0c.463-.01.83-.393.821-.856v-.014c-.008-.473-.398-.851-.871-.843h0Zm.31,1.378l-.285-.449-.004-.005h-.184v.454h-.149v-1.043h.398c.246,0,.367.095.367.294,0,.006,0,.012,0,.018-.001.147-.095.266-.289.266l.308.465h-.16Z"/>
  <path fill="#efefef" d="m12,0h0C5.373,0,0,5.373,0,12h0c0,6.627,5.373,12,12,12h0c6.627,0,12-5.373,12-12h0C24,5.373,18.627,0,12,0Zm7.037,18.056c-.008.578-.483,1.042-1.062,1.034H5.76c-.577.006-1.051-.457-1.058-1.034V5.79c.007-.577.48-1.04,1.058-1.033h12.215c.578-.009,1.053.454,1.062,1.032v12.267Zm1.65,1.136c-.54.005-.982-.428-.987-.968-.005-.539.428-.981.968-.987h.019c.532.005.963.436.968.968.005.539-.428.981-.968.987Zm-6.32-9.232c-.823-.03-1.596.394-2.012,1.105h-.028v-.935h-2.039v6.84h2.124v-3.383c0-.893.169-1.756,1.276-1.756,1.09,0,1.104,1.021,1.104,1.814v3.326h2.124v-3.752c0-1.843-.396-3.258-2.549-3.258h0Zm-7.54,7.01h2.126v-6.84h-2.126v6.84Zm1.064-10.24c-.681,0-1.233.552-1.233,1.233,0,.681.552,1.232,1.233,1.232s1.233-.552,1.233-1.233c0-.681-.552-1.233-1.233-1.232Z"/>
</svg>
